HIERARCHY
ROOT root
{
	OFFSET 0.00 0.00 0.00
	CHANNELS 6 Xposition Yposition Zposition Xrotation Yrotation Zrotation
	JOINT lfemur
	{
		OFFSET 3.80421 -3.76868 0.00000
		CHANNELS 3 Xrotation Yrotation Zrotation
		JOINT ltibia
		{
			OFFSET 0.00000 -17.76572 0.00000
			CHANNELS 3 Xrotation Yrotation Zrotation
			JOINT lfoot
			{
				OFFSET 0.00000 -16.34445 0.00000
				CHANNELS 3 Xrotation Yrotation Zrotation
				JOINT ltoes
				{
					OFFSET 0.00000 -1.60934 6.00613
					CHANNELS 3 Xrotation Yrotation Zrotation
					End Site
					{
						OFFSET 0.00000 0.00000 2.66486
					}
				}
			}
		}
	}
	JOINT rfemur
	{
		OFFSET -3.73314 -3.76868 0.00000
		CHANNELS 3 Xrotation Yrotation Zrotation
		JOINT rtibia
		{
			OFFSET 0.00001 -17.76571 0.00000
			CHANNELS 3 Xrotation Yrotation Zrotation
			JOINT rfoot
			{
				OFFSET 0.00001 -16.34445 0.00000
				CHANNELS 3 Xrotation Yrotation Zrotation
				JOINT rtoes
				{
					OFFSET 0.00000 -1.60933 6.00612
					CHANNELS 3 Xrotation Yrotation Zrotation
					End Site
					{
						OFFSET 0.00000 0.00000 2.66485
					}
				}
			}
		}
	}
	JOINT lowerBack
	{
		OFFSET 0.00000 0.02612 0.00000
		CHANNELS 3 Xrotation Yrotation Zrotation
		JOINT upperBack
		{
			OFFSET 0.00000 4.13549 0.00000
			CHANNELS 3 Xrotation Yrotation Zrotation
			JOINT thorax
			{
				OFFSET 0.00000 4.13548 0.00000
				CHANNELS 3 Xrotation Yrotation Zrotation
				JOINT neck1
				{
					OFFSET 0.00000 6.48004 0.00000
					CHANNELS 3 Xrotation Yrotation Zrotation
					JOINT neck2
					{
						OFFSET 0.00000 2.23561 0.00000
						CHANNELS 3 Xrotation Yrotation Zrotation
						JOINT head
						{
							OFFSET 0.00000 2.23559 0.00000
							CHANNELS 3 Xrotation Yrotation Zrotation
							End Site
							{
								OFFSET 0.00000 4.47112 0.00000
							}
						}
					}
				}
				JOINT lcollar
				{
					OFFSET 0.00000 5.92190 0.00000
					CHANNELS 3 Xrotation Yrotation Zrotation
					JOINT lhumerus
					{
						OFFSET 5.87599 0.00000 0.00000
						CHANNELS 3 Xrotation Yrotation Zrotation
						JOINT lwrist
						{
							OFFSET 11.16432 0.00000 0.00000
							CHANNELS 3 Xrotation Yrotation Zrotation
							JOINT lhand
							{
								OFFSET 10.18494 0.00000 0.00000
								CHANNELS 3 Xrotation Yrotation Zrotation
								End Site
								{
									OFFSET 5.87592 0.00000 0.00000
								}
							}
						}
					}
				}
				JOINT rcollar
				{
					OFFSET 0.00000 5.92190 0.00000
					CHANNELS 3 Xrotation Yrotation Zrotation
					JOINT rhumerus
					{
						OFFSET -5.87599 0.00000 0.00000
						CHANNELS 3 Xrotation Yrotation Zrotation
						JOINT rwrist
						{
							OFFSET -11.16433 0.00001 -0.00000
							CHANNELS 3 Xrotation Yrotation Zrotation
							JOINT rhand
							{
								OFFSET -10.18494 0.00001 0.00000
								CHANNELS 3 Xrotation Yrotation Zrotation
								End Site
								{
									OFFSET -5.87592 0.00000 -0.00000
								}
							}
						}
					}
				}
			}
		}
	}
}
MOTION
Frames: 10
Frame Time: 0.008333
 35.7573 40.6927 -6.3347 -0.2868 -2.9065 -2.1419 -3.9909 7.4024 6.8500 12.6800 0.0013 -0.0007 -11.3114 -0.3839 -2.4290 -0.9999 0.0013 0.0010 -3.9172 -5.9592 -0.5231 13.0093 -0.0005 0.0001 -11.5799 -5.1179 -0.6321 -1.1363 -0.0005 -0.0000 -4.3180 0.2420 1.4829 1.7394 0.2584 1.8214 0.8845 0.2037 0.3468 -0.5266 -4.3219 -4.7045 -2.0387 -4.3014 -2.9582 -3.5593 -4.4226 -1.2887 -0.3527 0.6783 0.0043 -16.2213 -3.3477 -12.7833 -0.0006 -14.4096 -0.0055 -9.0613 3.6602 -1.6230 -1.0338 -0.7656 -0.0138 -49.5360 5.5543 15.2925 -0.0050 21.2762 0.0121 26.3402 -16.7686 6.0793
 35.7279 40.6890 -6.3565 -0.2979 -2.8528 -2.1804 -4.0688 7.4630 6.9582 12.7196 0.0013 -0.0007 -11.3552 -0.4428 -2.7235 -0.9752 0.0013 0.0010 -3.9717 -5.9713 -0.4359 13.1408 -0.0005 0.0001 -11.6937 -5.1907 -0.6724 -1.0355 -0.0005 -0.0000 -4.2439 0.2564 1.4873 1.7172 0.3086 1.8022 0.8689 0.1608 0.3294 -0.3183 -4.2495 -4.4987 -1.9774 -4.2197 -2.9213 -3.6412 -4.3298 -1.4224 -0.3922 0.4939 0.0035 -15.8886 -2.9179 -13.3822 -0.0006 -15.3483 -0.0055 -9.0749 3.4896 -1.6957 -0.9858 -0.5724 -0.0098 -49.2279 4.9484 15.6849 -0.0050 21.4544 0.0121 26.5693 -16.4564 5.7527
 35.6687 40.6810 -6.3893 -0.1968 -2.6460 -2.1173 -4.4136 7.4780 7.0295 12.9971 0.0013 -0.0007 -11.1689 -0.7968 -2.4786 -1.4988 0.0013 0.0010 -4.2098 -6.1372 -0.4123 13.3605 -0.0005 0.0001 -11.8098 -5.1941 -0.7978 -0.9706 -0.0005 -0.0000 -4.1649 -0.0450 1.1587 1.6801 0.2902 1.8098 0.7567 0.3279 0.4981 -0.1253 -4.1749 -4.2914 -1.9197 -4.1255 -2.8845 -3.7387 -4.2139 -1.5435 -0.4202 0.6362 0.0047 -15.7832 -3.0467 -14.1077 -0.0006 -15.7636 -0.0055 -9.0916 3.1339 -1.5014 -0.9152 -0.4945 -0.0079 -49.1437 4.5799 16.2004 -0.0049 21.3316 0.0121 26.4795 -15.9420 6.0033
 35.6690 40.6810 -6.3895 -0.2035 -2.6427 -2.1229 -4.4127 7.4789 7.0298 13.0032 0.0013 -0.0007 -11.1692 -0.7936 -2.4772 -1.4990 0.0013 0.0010 -4.2068 -6.1377 -0.4120 13.3719 -0.0005 0.0001 -11.8082 -5.1929 -0.7968 -0.9712 -0.0005 -0.0000 -4.2678 0.1416 1.3577 1.7234 0.3005 1.7697 0.8403 0.1865 0.3116 0.0547 -4.0936 -4.1432 -1.8614 -4.0403 -2.8611 -3.7845 -4.1308 -1.6569 -0.4621 0.5414 0.0044 -15.5648 -2.8041 -14.8299 -0.0006 -16.4652 -0.0055 -9.5447 2.7708 -1.3546 -0.9007 -0.3369 -0.0053 -48.7416 4.1079 16.5734 -0.0049 21.3376 0.0121 26.3983 -15.3228 5.7449
 35.6446 40.6809 -6.3777 -0.2327 -2.6118 -2.0949 -4.2798 7.3876 7.0071 12.8432 0.0013 -0.0007 -11.1014 -0.6687 -2.3904 -1.4698 0.0013 0.0010 -4.1372 -6.1682 -0.4077 13.3590 -0.0005 0.0001 -11.8580 -5.1553 -0.8449 -0.9638 -0.0005 -0.0000 -4.4407 0.1956 1.3487 1.7636 0.2743 1.7406 1.0249 0.1845 0.2520 0.2527 -3.9903 -3.9589 -1.7670 -3.9768 -2.8329 -3.8757 -4.0546 -1.7271 -0.5309 0.5254 0.0049 -15.3065 -2.6858 -15.5922 -0.0006 -17.1157 -0.0055 -10.1268 2.3555 -1.3601 -0.8648 -0.1334 -0.0020 -48.3546 3.5550 16.9655 -0.0049 21.3667 0.0121 26.4171 -14.7698 5.5360
 35.6442 40.6810 -6.3774 -0.2243 -2.6184 -2.0954 -4.2822 7.3853 7.0053 12.8313 0.0013 -0.0007 -11.1017 -0.6736 -2.3924 -1.4695 0.0013 0.0010 -4.1424 -6.1663 -0.4168 13.3391 -0.0005 0.0001 -11.8611 -5.1579 -0.8471 -0.9630 -0.0006 -0.0000 -4.5509 0.3495 1.5539 1.7713 0.2860 1.6832 1.1294 0.0799 0.0576 0.4921 -3.9407 -3.7961 -1.7187 -3.8857 -2.7827 -3.9919 -3.9599 -1.8360 -0.5331 0.4680 0.0044 -15.0116 -2.5420 -16.4191 -0.0006 -17.7508 -0.0055 -10.2601 2.0034 -1.2731 -0.8160 0.0344 0.0005 -47.9222 3.0841 17.3655 -0.0049 21.2966 0.0121 26.7296 -14.1522 5.8044
 35.5552 40.6713 -6.4111 -0.2288 -2.2901 -2.2176 -4.5982 7.3937 7.3295 13.1848 0.0013 -0.0007 -11.1466 -0.9920 -2.4476 -1.6595 0.0013 0.0010 -4.1429 -6.4059 -0.1217 13.4292 -0.0005 0.0001 -11.8809 -5.2765 -0.9865 -0.8669 -0.0006 -0.0000 -4.3663 -0.1919 1.1495 1.7463 0.2675 1.7464 1.0064 0.3505 0.4237 0.6527 -3.8531 -3.5779 -1.6537 -3.7883 -2.7396 -4.0130 -3.8265 -1.9808 -0.6218 0.4636 0.0051 -14.5328 -2.3974 -17.2739 -0.0006 -18.3940 -0.0055 -10.4973 1.5822 -1.0770 -0.7000 0.1721 0.0021 -47.6482 2.6880 17.8895 -0.0048 21.1249 0.0120 26.9246 -13.5934 5.9994
 35.5547 40.6713 -6.4108 -0.2195 -2.2961 -2.2182 -4.6007 7.3931 7.3244 13.1753 0.0013 -0.0007 -11.1471 -0.9956 -2.4492 -1.6593 0.0013 0.0010 -4.1456 -6.4055 -0.1246 13.4121 -0.0005 0.0001 -11.8822 -5.2782 -0.9877 -0.8659 -0.0005 -0.0000 -4.4929 -0.0106 1.3349 1.7732 0.2432 1.7281 1.1111 0.2296 0.2328 0.9007 -3.7493 -3.4363 -1.5882 -3.7071 -2.7085 -4.1339 -3.7556 -2.0635 -0.6758 0.4147 0.0050 -14.0851 -2.2645 -18.1909 -0.0006 -18.9590 -0.0055 -10.9836 1.0998 -1.3126 -0.6934 0.3115 0.0038 -47.2754 2.2701 18.3961 -0.0048 20.8904 0.0120 26.8952 -12.7829 6.2742
 35.5544 40.6713 -6.4106 -0.2134 -2.3010 -2.2192 -4.6014 7.3928 7.3197 13.1692 0.0013 -0.0007 -11.1477 -0.9986 -2.4504 -1.6592 0.0013 0.0010 -4.1483 -6.4057 -0.1262 13.3997 -0.0005 0.0001 -11.8835 -5.2797 -0.9887 -0.8654 -0.0005 -0.0000 -4.6140 0.1688 1.5388 1.8076 0.2403 1.6791 1.2058 0.1019 0.0282 1.0508 -3.6879 -3.2421 -1.5000 -3.6078 -2.6626 -4.1158 -3.6398 -2.1665 -0.6873 0.3715 0.0045 -13.7248 -2.2129 -19.1335 -0.0006 -19.4240 -0.0055 -11.2445 0.7904 -1.4618 -0.6715 0.5168 0.0061 -46.6819 1.7319 18.8972 -0.0048 20.8864 0.0120 26.6550 -12.7458 6.0288
 35.5543 40.6714 -6.4105 -0.2086 -2.3050 -2.2233 -4.6013 7.3924 7.3125 13.1663 0.0013 -0.0007 -11.1482 -1.0007 -2.4513 -1.6592 0.0013 0.0010 -4.1468 -6.4063 -0.1255 13.3947 -0.0004 0.0001 -11.8841 -5.2806 -0.9892 -0.8651 -0.0005 -0.0000 -4.7214 0.3349 1.7321 1.8303 0.2279 1.7075 1.3034 0.0166 -0.0943 1.2780 -3.5734 -3.2654 -1.4466 -3.5173 -2.6894 -4.2054 -3.5680 -2.2006 -0.6233 0.2385 0.0027 -13.2482 -2.0674 -20.2301 -0.0006 -19.8658 -0.0055 -12.1428 0.3176 -1.9239 -0.7297 0.5282 0.0068 -45.9565 1.6213 19.4421 -0.0048 20.6217 0.0120 26.5707 -12.2515 5.8874
